<svg xmlns="http://www.w3.org/2000/svg" viewBox="0 0 1000 324.68">
  <path fill="#00579f" d="M433.32 318.53h-82.3l51.5-301.95h82.29l-51.49 301.95z"/>
  <path fill="#00579f" d="M727.5 23.97c-16.28-6.1-41.86-12.76-73.74-12.76-81.2 0-138.46 40.9-138.9 99.4-.45 43.3 40.9 67.45 72.1 81.9 32.04 14.76 42.76 24.2 42.6 37.4-.22 20.2-25.54 29.44-49.14 29.44-32.83 0-50.25-4.56-77.06-15.76l-10.55-4.78-11.46 67.12c19.08 8.36 54.36 15.65 91 16 85.76 0 141.6-40.43 142.23-103.07.33-34.32-21.55-60.53-68.86-82.08-28.7-13.97-46.3-23.3-46.1-37.4.1-12.55 14.97-25.98 47.23-25.98 26.96-.45 46.5 5.45 61.7 11.56l7.4 3.5 11.2-65.5z"/>
  <path fill="#00579f" d="M834.72 207.53c6.9-17.6 33.23-85.6 33.23-85.6-.44.78 6.87-17.8 11.1-29.3l5.65 26.4s15.92 73.16 19.23 88.5h-69.2zm102.77-190.95h-63.4c-19.67 0-34.38 5.37-43 25l-121.7 276.95h85.94l17.2-45.02h105.08c2.44 10.46 9.93 45.02 9.93 45.02h75.9L937.5 16.58z"/>
  <path fill="#00579f" d="M284.08 16.58l-80.4 204.5-8.55-41.8c-14.97-48.16-61.6-100.27-113.7-126.26l73.6 264.85h86.82L353.9 16.58h-69.82z"/>
</svg>

